<?xml version="1.0" encoding="UTF-8" standalone="yes"?><svg xmlns="http://www.w3.org/2000/svg" xmlns:xlink="http://www.w3.org/1999/xlink" height="516px" style="width:867px;height:516px;" version="1.1" viewBox="0 0 867 516" width="867px"><defs><filter height="300%" id="f1" width="300%" x="-1" y="-1"><feGaussianBlur result="blurOut" stdDeviation="2.0"/><feColorMatrix in="blurOut" result="blurOut2" type="matrix" values="0 0 0 0 0 0 0 0 0 0 0 0 0 0 0 0 0 0 .4 0"/><feOffset dx="4.0" dy="4.0" in="blurOut2" result="blurOut3"/><feBlend in="SourceGraphic" in2="blurOut3" mode="normal"/></filter></defs><g><rect fill="#FEFECE" filter="url(#f1)" height="60.8047" style="stroke: #A80036; stroke-width: 1.5;" width="88" x="384" y="8"/><ellipse cx="399" cy="24" fill="#00FFFF" rx="11" ry="11" style="stroke: #A80036; stroke-width: 1.0;"/><path d="M399.8438,30.75 L397.3906,30.75 L397.3906,20.5 L394.25,20.5 L394.25,18.3594 L402.9844,18.3594 L402.9844,20.5 L399.8438,20.5 L399.8438,30.75 Z "/><text fill="#000000" font-family="sans-serif" font-size="12" lengthAdjust="spacingAndGlyphs" textLength="56" x="413" y="28.1543">Based[T]</text><line style="stroke: #A80036; stroke-width: 1.5;" x1="385" x2="471" y1="40" y2="40"/><text fill="#000000" font-family="sans-serif" font-size="11" lengthAdjust="spacingAndGlyphs" textLength="72" x="390" y="54.2104">type Base[A]</text><line style="stroke: #A80036; stroke-width: 1.5;" x1="385" x2="471" y1="60.8047" y2="60.8047"/><rect fill="#FEFECE" filter="url(#f1)" height="86.4141" style="stroke: #A80036; stroke-width: 1.5;" width="383" x="24.5" y="146"/><ellipse cx="173.25" cy="162" fill="#00FFFF" rx="11" ry="11" style="stroke: #A80036; stroke-width: 1.0;"/><path d="M174.0938,168.75 L171.6406,168.75 L171.6406,158.5 L168.5,158.5 L168.5,156.3594 L177.2344,156.3594 L177.2344,158.5 L174.0938,158.5 L174.0938,168.75 Z "/><text fill="#000000" font-family="sans-serif" font-size="12" lengthAdjust="spacingAndGlyphs" textLength="77" x="193.75" y="166.1543">Recursive[T]</text><line style="stroke: #A80036; stroke-width: 1.5;" x1="25.5" x2="406.5" y1="178" y2="178"/><text fill="#000000" font-family="sans-serif" font-size="11" font-style="italic" lengthAdjust="spacingAndGlyphs" textLength="291" x="30.5" y="192.2104">def project(t: T)(implicit BF: Functor[Base]): Base[T]</text><line style="stroke: #A80036; stroke-width: 1.0;" x1="25.5" x2="406.5" y1="198.8047" y2="198.8047"/><text fill="#000000" font-family="sans-serif" font-size="11" lengthAdjust="spacingAndGlyphs" textLength="371" x="30.5" y="213.0151">def cata[A](t: T)(f: Algebra[Base, A])(implicit BF: Functor[Base]): A</text><text fill="#000000" font-family="sans-serif" font-size="11" lengthAdjust="spacingAndGlyphs" textLength="12" x="30.5" y="225.8198">...</text><rect fill="#FEFECE" filter="url(#f1)" height="86.4141" style="stroke: #A80036; stroke-width: 1.5;" width="398" x="443" y="146"/><ellipse cx="592.75" cy="162" fill="#00FFFF" rx="11" ry="11" style="stroke: #A80036; stroke-width: 1.0;"/><path d="M593.5938,168.75 L591.1406,168.75 L591.1406,158.5 L588,158.5 L588,156.3594 L596.7344,156.3594 L596.7344,158.5 L593.5938,158.5 L593.5938,168.75 Z "/><text fill="#000000" font-family="sans-serif" font-size="12" lengthAdjust="spacingAndGlyphs" textLength="90" x="613.25" y="166.1543">Corecursive[T]</text><line style="stroke: #A80036; stroke-width: 1.5;" x1="444" x2="840" y1="178" y2="178"/><text fill="#000000" font-family="sans-serif" font-size="11" font-style="italic" lengthAdjust="spacingAndGlyphs" textLength="291" x="449" y="192.2104">def embed(t: Base[T])(implicit BF: Functor[Base]): T</text><line style="stroke: #A80036; stroke-width: 1.0;" x1="444" x2="840" y1="198.8047" y2="198.8047"/><text fill="#000000" font-family="sans-serif" font-size="11" lengthAdjust="spacingAndGlyphs" textLength="386" x="449" y="213.0151">def ana[A](a: A)(f: Coalgebra[Base, A])(implicit BF: Functor[Base]): T</text><text fill="#000000" font-family="sans-serif" font-size="11" lengthAdjust="spacingAndGlyphs" textLength="12" x="449" y="225.8198">...</text><rect fill="#FEFECE" filter="url(#f1)" height="60.8047" style="stroke: #A80036; stroke-width: 1.5;" width="326" x="6" y="309"/><ellipse cx="134.75" cy="325" fill="#008000" rx="11" ry="11" style="stroke: #A80036; stroke-width: 1.0;"/><path d="M134.8594,320.5781 Q133.9219,320.5781 133.4844,321.5781 Q133.0625,322.5781 133.0625,324.8125 Q133.0625,327.0469 133.4844,328.0469 Q133.9219,329.0469 134.8594,329.0469 Q135.8125,329.0469 136.2344,328.0469 Q136.6719,327.0469 136.6719,324.8125 Q136.6719,322.5781 136.2344,321.5781 Q135.8125,320.5781 134.8594,320.5781 Z M130.5156,324.8125 Q130.5156,321.6406 131.6094,320.0156 Q132.7188,318.375 134.8594,318.375 Q137.0156,318.375 138.1094,320.0156 Q139.2188,321.6406 139.2188,324.8125 Q139.2188,327.9844 138.1094,329.6094 Q137.0156,331.2344 134.8594,331.2344 Q132.7188,331.2344 131.6094,329.6094 Q130.5156,327.9844 130.5156,324.8125 Z "/><text fill="#000000" font-family="sans-serif" font-size="12" lengthAdjust="spacingAndGlyphs" textLength="60" x="155.25" y="329.1543">Recursive</text><line style="stroke: #A80036; stroke-width: 1.5;" x1="7" x2="331" y1="341" y2="341"/><text fill="#000000" font-family="sans-serif" font-size="11" lengthAdjust="spacingAndGlyphs" textLength="314" x="12" y="355.2104">type Aux[T, F[_]] = Recursive[T] { type Base[A] = F[A] }</text><line style="stroke: #A80036; stroke-width: 1.5;" x1="7" x2="331" y1="361.8047" y2="361.8047"/><rect fill="#FEFECE" filter="url(#f1)" height="60.8047" style="stroke: #A80036; stroke-width: 1.5;" width="339" x="519.5" y="309"/><ellipse cx="648.25" cy="325" fill="#008000" rx="11" ry="11" style="stroke: #A80036; stroke-width: 1.0;"/><path d="M648.3594,320.5781 Q647.4219,320.5781 646.9844,321.5781 Q646.5625,322.5781 646.5625,324.8125 Q646.5625,327.0469 646.9844,328.0469 Q647.4219,329.0469 648.3594,329.0469 Q649.3125,329.0469 649.7344,328.0469 Q650.1719,327.0469 650.1719,324.8125 Q650.1719,322.5781 649.7344,321.5781 Q649.3125,320.5781 648.3594,320.5781 Z M644.0156,324.8125 Q644.0156,321.6406 645.1094,320.0156 Q646.2188,318.375 648.3594,318.375 Q650.5156,318.375 651.6094,320.0156 Q652.7188,321.6406 652.7188,324.8125 Q652.7188,327.9844 651.6094,329.6094 Q650.5156,331.2344 648.3594,331.2344 Q646.2188,331.2344 645.1094,329.6094 Q644.0156,327.9844 644.0156,324.8125 Z "/><text fill="#000000" font-family="sans-serif" font-size="12" lengthAdjust="spacingAndGlyphs" textLength="73" x="668.75" y="329.1543">Corecursive</text><line style="stroke: #A80036; stroke-width: 1.5;" x1="520.5" x2="857.5" y1="341" y2="341"/><text fill="#000000" font-family="sans-serif" font-size="11" lengthAdjust="spacingAndGlyphs" textLength="327" x="525.5" y="355.2104">type Aux[T, F[_]] = Corecursive[T] { type Base[A] = F[A] }</text><line style="stroke: #A80036; stroke-width: 1.5;" x1="520.5" x2="857.5" y1="361.8047" y2="361.8047"/><rect fill="#FEFECE" filter="url(#f1)" height="48" style="stroke: #A80036; stroke-width: 1.5;" width="117" x="367.5" y="315.5"/><ellipse cx="382.5" cy="331.5" fill="#00FFFF" rx="11" ry="11" style="stroke: #A80036; stroke-width: 1.0;"/><path d="M383.3438,338.25 L380.8906,338.25 L380.8906,328 L377.75,328 L377.75,325.8594 L386.4844,325.8594 L386.4844,328 L383.3438,328 L383.3438,338.25 Z "/><text fill="#000000" font-family="sans-serif" font-size="12" lengthAdjust="spacingAndGlyphs" textLength="85" x="396.5" y="335.6543">Birecursive[T]</text><line style="stroke: #A80036; stroke-width: 1.5;" x1="368.5" x2="483.5" y1="347.5" y2="347.5"/><line style="stroke: #A80036; stroke-width: 1.5;" x1="368.5" x2="483.5" y1="355.5" y2="355.5"/><rect fill="#FEFECE" filter="url(#f1)" height="60.8047" style="stroke: #A80036; stroke-width: 1.5;" width="335" x="258.5" y="447"/><ellipse cx="387.75" cy="463" fill="#008000" rx="11" ry="11" style="stroke: #A80036; stroke-width: 1.0;"/><path d="M387.8594,458.5781 Q386.9219,458.5781 386.4844,459.5781 Q386.0625,460.5781 386.0625,462.8125 Q386.0625,465.0469 386.4844,466.0469 Q386.9219,467.0469 387.8594,467.0469 Q388.8125,467.0469 389.2344,466.0469 Q389.6719,465.0469 389.6719,462.8125 Q389.6719,460.5781 389.2344,459.5781 Q388.8125,458.5781 387.8594,458.5781 Z M383.5156,462.8125 Q383.5156,459.6406 384.6094,458.0156 Q385.7188,456.375 387.8594,456.375 Q390.0156,456.375 391.1094,458.0156 Q392.2188,459.6406 392.2188,462.8125 Q392.2188,465.9844 391.1094,467.6094 Q390.0156,469.2344 387.8594,469.2344 Q385.7188,469.2344 384.6094,467.6094 Q383.5156,465.9844 383.5156,462.8125 Z "/><text fill="#000000" font-family="sans-serif" font-size="12" lengthAdjust="spacingAndGlyphs" textLength="68" x="408.25" y="467.1543">Birecursive</text><line style="stroke: #A80036; stroke-width: 1.5;" x1="259.5" x2="592.5" y1="479" y2="479"/><text fill="#000000" font-family="sans-serif" font-size="11" lengthAdjust="spacingAndGlyphs" textLength="323" x="264.5" y="493.2104">type Aux[T, F[_]] = Birecursive[T] { type Base[A] = F[A] }</text><line style="stroke: #A80036; stroke-width: 1.5;" x1="259.5" x2="592.5" y1="499.8047" y2="499.8047"/><path d="M369.129,80.738 C340.15,101.037 305.27,125.469 276.124,145.885 " fill="none" style="stroke: #A80036; stroke-width: 1.0;"/><polygon fill="none" points="365.465,74.757,385.862,69.016,373.497,86.224,365.465,74.757" style="stroke: #A80036; stroke-width: 1.0;"/><text fill="#000000" font-family="sans-serif" font-size="13" lengthAdjust="spacingAndGlyphs" textLength="51" x="342" y="112.0669">extends</text><path d="M487.015,80.452 C516.348,100.807 551.75,125.373 581.309,145.885 " fill="none" style="stroke: #A80036; stroke-width: 1.0;"/><polygon fill="none" points="482.976,86.17,470.535,69.016,490.958,74.668,482.976,86.17" style="stroke: #A80036; stroke-width: 1.0;"/><text fill="#000000" font-family="sans-serif" font-size="13" lengthAdjust="spacingAndGlyphs" textLength="51" x="536" y="112.0669">extends</text><path d="M202.657,232.157 C194.896,256.681 185.303,286.989 178.347,308.967 " fill="none" style="stroke: #A80036; stroke-width: 1.0; stroke-dasharray: 7.0,7.0;"/><text fill="#000000" font-family="sans-serif" font-size="13" lengthAdjust="spacingAndGlyphs" textLength="71" x="194" y="275.0669">companion</text><path d="M655.343,232.157 C663.104,256.681 672.697,286.989 679.653,308.967 " fill="none" style="stroke: #A80036; stroke-width: 1.0; stroke-dasharray: 7.0,7.0;"/><text fill="#000000" font-family="sans-serif" font-size="13" lengthAdjust="spacingAndGlyphs" textLength="71" x="671" y="275.0669">companion</text><path d="M292.245,243.916 C327.015,268.504 366.344,296.315 393.306,315.381 " fill="none" style="stroke: #A80036; stroke-width: 1.0;"/><polygon fill="none" points="287.904,249.42,275.616,232.157,295.987,237.989,287.904,249.42" style="stroke: #A80036; stroke-width: 1.0;"/><text fill="#000000" font-family="sans-serif" font-size="13" lengthAdjust="spacingAndGlyphs" textLength="51" x="341" y="275.0669">extends</text><path d="M564.064,243.581 C528.181,268.251 487.486,296.228 459.628,315.381 " fill="none" style="stroke: #A80036; stroke-width: 1.0;"/><polygon fill="none" points="560.234,237.719,580.681,232.157,568.166,249.256,560.234,237.719" style="stroke: #A80036; stroke-width: 1.0;"/><text fill="#000000" font-family="sans-serif" font-size="13" lengthAdjust="spacingAndGlyphs" textLength="51" x="535" y="275.0669">extends</text><path d="M426,363.571 C426,386.457 426,421.6348 426,446.6411 " fill="none" style="stroke: #A80036; stroke-width: 1.0; stroke-dasharray: 7.0,7.0;"/><text fill="#000000" font-family="sans-serif" font-size="13" lengthAdjust="spacingAndGlyphs" textLength="71" x="427" y="413.0669">companion</text></g></svg>