<?xml version="1.0" encoding="UTF-8" standalone="yes"?><svg xmlns="http://www.w3.org/2000/svg" xmlns:xlink="http://www.w3.org/1999/xlink" height="710px" style="width:1222px;height:710px;" version="1.1" viewBox="0 0 1222 710" width="1222px"><defs><filter height="300%" id="f1" width="300%" x="-1" y="-1"><feGaussianBlur result="blurOut" stdDeviation="2.0"/><feColorMatrix in="blurOut" result="blurOut2" type="matrix" values="0 0 0 0 0 0 0 0 0 0 0 0 0 0 0 0 0 0 .4 0"/><feOffset dx="4.0" dy="4.0" in="blurOut2" result="blurOut3"/><feBlend in="SourceGraphic" in2="blurOut3" mode="normal"/></filter></defs><g><rect fill="#FEFECE" filter="url(#f1)" height="79.5469" style="stroke: #A80036; stroke-width: 1.5;" width="543" x="218" y="177"/><ellipse cx="401.75" cy="195.9688" fill="#00FFFF" rx="11" ry="11" style="stroke: #A80036; stroke-width: 1.0;"/><path d="M402.5938,202.7188 L400.1406,202.7188 L400.1406,192.4688 L397,192.4688 L397,190.3281 L405.7344,190.3281 L405.7344,192.4688 L402.5938,192.4688 L402.5938,202.7188 Z "/><text fill="#000000" font-family="sans-serif" font-size="12" font-style="italic" lengthAdjust="spacingAndGlyphs" textLength="171" x="420.25" y="193.1387">«synthetic/polyapply.scala»</text><text fill="#000000" font-family="sans-serif" font-size="12" lengthAdjust="spacingAndGlyphs" textLength="58" x="476.75" y="207.1074">PolyApply</text><line style="stroke: #A80036; stroke-width: 1.5;" x1="219" x2="760" y1="214.9375" y2="214.9375"/><line style="stroke: #A80036; stroke-width: 1.5;" x1="219" x2="760" y1="222.9375" y2="222.9375"/><text fill="#000000" font-family="sans-serif" font-size="11" lengthAdjust="spacingAndGlyphs" textLength="457" x="224" y="237.1479">def apply[A](a:A)(implicit cse : Case[this.type, A::HNil]): cse.Result = cse(a::HNil)</text><text fill="#000000" font-family="sans-serif" font-size="11" lengthAdjust="spacingAndGlyphs" textLength="531" x="224" y="249.9526">def apply[A, B](a:A, b:B)(implicit cse : Case[this.type, A::B::HNil]): cse.Result = cse(a::b::HNil)</text><rect fill="#FEFECE" filter="url(#f1)" height="66.7422" style="stroke: #A80036; stroke-width: 1.5;" width="346" x="553.5" y="334"/><ellipse cx="670.25" cy="352.9688" fill="#00FFFF" rx="11" ry="11" style="stroke: #A80036; stroke-width: 1.0;"/><path d="M671.0938,359.7188 L668.6406,359.7188 L668.6406,349.4688 L665.5,349.4688 L665.5,347.3281 L674.2344,347.3281 L674.2344,349.4688 L671.0938,349.4688 L671.0938,359.7188 Z "/><text fill="#000000" font-family="sans-serif" font-size="12" font-style="italic" lengthAdjust="spacingAndGlyphs" textLength="108" x="688.75" y="350.1387">«core/poly.scala»</text><text fill="#000000" font-family="sans-serif" font-size="12" lengthAdjust="spacingAndGlyphs" textLength="25" x="730.25" y="364.1074">Poly</text><line style="stroke: #A80036; stroke-width: 1.5;" x1="554.5" x2="898.5" y1="371.9375" y2="371.9375"/><line style="stroke: #A80036; stroke-width: 1.5;" x1="554.5" x2="898.5" y1="379.9375" y2="379.9375"/><text fill="#000000" font-family="sans-serif" font-size="11" lengthAdjust="spacingAndGlyphs" textLength="334" x="559.5" y="394.1479">def apply[R](implicit c: Case.Aux[this.type, HNil, R]): R = c()</text><rect fill="#FEFECE" filter="url(#f1)" height="92.3516" style="stroke: #A80036; stroke-width: 1.5;" width="153" x="652" y="8"/><ellipse cx="669.7" cy="26.9688" fill="#00FFFF" rx="11" ry="11" style="stroke: #A80036; stroke-width: 1.0;"/><path d="M670.5438,33.7188 L668.0906,33.7188 L668.0906,23.4688 L664.95,23.4688 L664.95,21.3281 L673.6844,21.3281 L673.6844,23.4688 L670.5438,23.4688 L670.5438,33.7188 Z "/><text fill="#000000" font-family="sans-serif" font-size="12" font-style="italic" lengthAdjust="spacingAndGlyphs" textLength="108" x="687.8" y="24.1387">«core/poly.scala»</text><text fill="#000000" font-family="sans-serif" font-size="12" lengthAdjust="spacingAndGlyphs" textLength="115" x="684.3" y="38.1074">Case[P, L &lt;: HList]</text><line style="stroke: #A80036; stroke-width: 1.5;" x1="653" x2="804" y1="45.9375" y2="45.9375"/><line style="stroke: #A80036; stroke-width: 1.0;" x1="653" x2="804" y1="53.9375" y2="53.9375"/><text fill="#000000" font-family="sans-serif" font-size="11" lengthAdjust="spacingAndGlyphs" textLength="63" x="658" y="68.1479">type Result</text><text fill="#000000" font-family="sans-serif" font-size="11" lengthAdjust="spacingAndGlyphs" textLength="129" x="658" y="80.9526">val value : L =&gt; Result</text><text fill="#000000" font-family="sans-serif" font-size="11" lengthAdjust="spacingAndGlyphs" textLength="141" x="658" y="93.7573">def apply(t : L) = value(t)</text><rect fill="#FEFECE" filter="url(#f1)" height="66.7422" style="stroke: #A80036; stroke-width: 1.5;" width="205" x="491" y="478"/><ellipse cx="506" cy="496.9688" fill="#00FFFF" rx="11" ry="11" style="stroke: #A80036; stroke-width: 1.0;"/><path d="M506.8438,503.7188 L504.3906,503.7188 L504.3906,493.4688 L501.25,493.4688 L501.25,491.3281 L509.9844,491.3281 L509.9844,493.4688 L506.8438,493.4688 L506.8438,503.7188 Z "/><text fill="#000000" font-family="sans-serif" font-size="12" font-style="italic" lengthAdjust="spacingAndGlyphs" textLength="177" x="518" y="494.1387">«synthetic/polyntraits.scala»</text><text fill="#000000" font-family="sans-serif" font-size="12" lengthAdjust="spacingAndGlyphs" textLength="33" x="590" y="508.1074">Poly1</text><line style="stroke: #A80036; stroke-width: 1.5;" x1="492" x2="695" y1="515.9375" y2="515.9375"/><line style="stroke: #A80036; stroke-width: 1.0;" x1="492" x2="695" y1="523.9375" y2="523.9375"/><text fill="#000000" font-family="sans-serif" font-size="11" lengthAdjust="spacingAndGlyphs" textLength="176" x="497" y="538.1479">def at[A] = new CaseBuilder[A]</text><rect fill="#FEFECE" filter="url(#f1)" height="66.7422" style="stroke: #A80036; stroke-width: 1.5;" width="220" x="882.5" y="478"/><ellipse cx="904.25" cy="496.9688" fill="#00FFFF" rx="11" ry="11" style="stroke: #A80036; stroke-width: 1.0;"/><path d="M905.0938,503.7188 L902.6406,503.7188 L902.6406,493.4688 L899.5,493.4688 L899.5,491.3281 L908.2344,491.3281 L908.2344,493.4688 L905.0938,493.4688 L905.0938,503.7188 Z "/><text fill="#000000" font-family="sans-serif" font-size="12" font-style="italic" lengthAdjust="spacingAndGlyphs" textLength="177" x="917.75" y="494.1387">«synthetic/polyntraits.scala»</text><text fill="#000000" font-family="sans-serif" font-size="12" lengthAdjust="spacingAndGlyphs" textLength="33" x="989.75" y="508.1074">Poly2</text><line style="stroke: #A80036; stroke-width: 1.5;" x1="883.5" x2="1101.5" y1="515.9375" y2="515.9375"/><line style="stroke: #A80036; stroke-width: 1.0;" x1="883.5" x2="1101.5" y1="523.9375" y2="523.9375"/><text fill="#000000" font-family="sans-serif" font-size="11" lengthAdjust="spacingAndGlyphs" textLength="208" x="888.5" y="538.1479">def at[A, B] = new CaseBuilder[A, B]</text><rect fill="#FEFECE" filter="url(#f1)" height="66.7422" style="stroke: #A80036; stroke-width: 1.5;" width="321" x="6" y="628.5"/><ellipse cx="75.75" cy="647.4688" fill="#00FFFF" rx="11" ry="11" style="stroke: #A80036; stroke-width: 1.0;"/><path d="M76.5938,654.2188 L74.1406,654.2188 L74.1406,643.9688 L71,643.9688 L71,641.8281 L79.7344,641.8281 L79.7344,643.9688 L76.5938,643.9688 L76.5938,654.2188 Z "/><text fill="#000000" font-family="sans-serif" font-size="12" font-style="italic" lengthAdjust="spacingAndGlyphs" textLength="177" x="94.25" y="644.6387">«synthetic/polyntraits.scala»</text><text fill="#000000" font-family="sans-serif" font-size="12" lengthAdjust="spacingAndGlyphs" textLength="135" x="115.25" y="658.6074">Poly1#CaseBuilder[A]</text><line style="stroke: #A80036; stroke-width: 1.5;" x1="7" x2="326" y1="666.4375" y2="666.4375"/><line style="stroke: #A80036; stroke-width: 1.5;" x1="7" x2="326" y1="674.4375" y2="674.4375"/><text fill="#000000" font-family="sans-serif" font-size="11" lengthAdjust="spacingAndGlyphs" textLength="309" x="12" y="688.6479">def apply[Res](fn: (A) =&gt; Res): Case[this.type, A::HNil]</text><rect fill="#FEFECE" filter="url(#f1)" height="66.7422" style="stroke: #A80036; stroke-width: 1.5;" width="353" x="860" y="628.5"/><ellipse cx="945.75" cy="647.4688" fill="#00FFFF" rx="11" ry="11" style="stroke: #A80036; stroke-width: 1.0;"/><path d="M946.5938,654.2188 L944.1406,654.2188 L944.1406,643.9688 L941,643.9688 L941,641.8281 L949.7344,641.8281 L949.7344,643.9688 L946.5938,643.9688 L946.5938,654.2188 Z "/><text fill="#000000" font-family="sans-serif" font-size="12" font-style="italic" lengthAdjust="spacingAndGlyphs" textLength="177" x="964.25" y="644.6387">«synthetic/polyntraits.scala»</text><text fill="#000000" font-family="sans-serif" font-size="12" lengthAdjust="spacingAndGlyphs" textLength="151" x="977.25" y="658.6074">Poly2#CaseBuilder[A, B]</text><line style="stroke: #A80036; stroke-width: 1.5;" x1="861" x2="1212" y1="666.4375" y2="666.4375"/><line style="stroke: #A80036; stroke-width: 1.5;" x1="861" x2="1212" y1="674.4375" y2="674.4375"/><text fill="#000000" font-family="sans-serif" font-size="11" lengthAdjust="spacingAndGlyphs" textLength="341" x="866" y="688.6479">def apply[Res](fn: (A, B) =&gt; Res): Case[this.type, A::B::HNil]</text><rect fill="#FEFECE" filter="url(#f1)" height="79.5469" style="stroke: #A80036; stroke-width: 1.5;" width="462" x="362.5" y="622"/><ellipse cx="537.25" cy="640.9688" fill="#00FFFF" rx="11" ry="11" style="stroke: #A80036; stroke-width: 1.0;"/><path d="M538.0938,647.7188 L535.6406,647.7188 L535.6406,637.4688 L532.5,637.4688 L532.5,635.3281 L541.2344,635.3281 L541.2344,637.4688 L538.0938,637.4688 L538.0938,647.7188 Z "/><text fill="#000000" font-family="sans-serif" font-size="12" font-style="italic" lengthAdjust="spacingAndGlyphs" textLength="108" x="555.75" y="638.1387">«core/poly.scala»</text><text fill="#000000" font-family="sans-serif" font-size="12" lengthAdjust="spacingAndGlyphs" textLength="86" x="566.75" y="652.1074">~&gt;[F[_], G[_]]</text><line style="stroke: #A80036; stroke-width: 1.5;" x1="363.5" x2="823.5" y1="659.9375" y2="659.9375"/><line style="stroke: #A80036; stroke-width: 1.5;" x1="363.5" x2="823.5" y1="667.9375" y2="667.9375"/><text fill="#000000" font-family="sans-serif" font-size="11" lengthAdjust="spacingAndGlyphs" textLength="148" x="368.5" y="682.1479">def apply[T](f : F[T]) : G[T]</text><text fill="#000000" font-family="sans-serif" font-size="11" lengthAdjust="spacingAndGlyphs" textLength="450" x="368.5" y="694.9526">implicit def caseUniv[T]: Case.Aux[this.type, F[T]::HNil, G[T]] = at[F[T]](apply(_))</text><path d="M568.867,267.73 C603.586,289.484 643.354,314.402 674.26,333.767 " fill="none" style="stroke: #A80036; stroke-width: 1.0;"/><polygon fill="none" points="565,273.568,551.769,257.017,572.434,261.704,565,273.568" style="stroke: #A80036; stroke-width: 1.0;"/><text fill="#000000" font-family="sans-serif" font-size="13" lengthAdjust="spacingAndGlyphs" textLength="51" x="623.5" y="300.0669">extends</text><path d="M657.365,102.92 C622.293,126.545 580.536,154.674 547.443,176.967 " fill="none" style="stroke: #A80036; stroke-width: 1.0; stroke-dasharray: 7.0,7.0;"/><polygon fill="#A80036" points="661.607,100.062,651.9079,101.773,657.4602,102.8556,656.3776,108.4079,661.607,100.062" style="stroke: #A80036; stroke-width: 1.0;"/><text fill="#000000" font-family="sans-serif" font-size="13" lengthAdjust="spacingAndGlyphs" textLength="45" x="617.5" y="143.0669">implicit</text><path d="M754.069,104.851 C763.772,126.436 773.647,152.362 778.5,177 C785.371,211.885 786.317,222.314 778.5,257 C772.346,284.305 758.551,312.794 746.715,333.867 " fill="none" style="stroke: #A80036; stroke-width: 1.0; stroke-dasharray: 7.0,7.0;"/><polygon fill="#A80036" points="751.873,100.031,751.9641,109.8794,753.9459,104.5811,759.2443,106.5628,751.873,100.031" style="stroke: #A80036; stroke-width: 1.0;"/><text fill="#000000" font-family="sans-serif" font-size="13" lengthAdjust="spacingAndGlyphs" textLength="45" x="784.5" y="221.5669">implicit</text><path d="M682.134,415.868 C663.172,436.113 641.499,459.253 624.331,477.582 " fill="none" style="stroke: #A80036; stroke-width: 1.0;"/><polygon fill="none" points="677.206,410.89,695.987,401.078,687.424,420.46,677.206,410.89" style="stroke: #A80036; stroke-width: 1.0;"/><text fill="#000000" font-family="sans-serif" font-size="13" lengthAdjust="spacingAndGlyphs" textLength="51" x="665.5" y="444.0669">extends</text><path d="M805.395,410.617 C845.655,432.109 893.888,457.857 931.298,477.828 " fill="none" style="stroke: #A80036; stroke-width: 1.0;"/><polygon fill="none" points="801.873,416.672,787.526,401.078,808.466,404.321,801.873,416.672" style="stroke: #A80036; stroke-width: 1.0;"/><text fill="#000000" font-family="sans-serif" font-size="13" lengthAdjust="spacingAndGlyphs" textLength="51" x="867.5" y="444.0669">extends</text><path d="M485.278,550.137 C420.657,572.61 338.873,601.053 274.324,623.5017 " fill="none" style="stroke: #A80036; stroke-width: 1.0;"/><ellipse cx="267.5441" cy="625.8593" fill="#FFFFFF" rx="8" ry="8" style="stroke: #A80036; stroke-width: 1.0;"/><line style="stroke: #A80036; stroke-width: 1.0;" x1="275.1002" x2="259.988" y1="623.2315" y2="628.4871"/><line style="stroke: #A80036; stroke-width: 1.0;" x1="270.1719" x2="264.9163" y1="633.4154" y2="618.3032"/><polygon fill="#A80036" points="499.793,545.089,489.9785,544.267,495.0704,546.7313,492.6062,551.8232,499.793,545.089" style="stroke: #A80036; stroke-width: 1.0;"/><line style="stroke: #A80036; stroke-width: 1.0;" x1="495.0704" x2="485.6255" y1="546.7313" y2="550.016"/><text fill="#000000" font-family="sans-serif" font-size="13" lengthAdjust="spacingAndGlyphs" textLength="68" x="407.5" y="588.0669">inner class</text><path d="M1006.44,559.537 C1011.58,576.9 1017.41,596.568 1022.55,613.9343 " fill="none" style="stroke: #A80036; stroke-width: 1.0;"/><ellipse cx="1024.5978" cy="620.8166" fill="#FFFFFF" rx="8" ry="8" style="stroke: #A80036; stroke-width: 1.0;"/><line style="stroke: #A80036; stroke-width: 1.0;" x1="1022.3256" x2="1026.87" y1="613.146" y2="628.4871"/><line style="stroke: #A80036; stroke-width: 1.0;" x1="1032.2683" x2="1016.9273" y1="618.5444" y2="623.0888"/><polygon fill="#A80036" points="1002.156,545.089,1000.878,554.8546,1003.5767,549.8829,1008.5483,552.5815,1002.156,545.089" style="stroke: #A80036; stroke-width: 1.0;"/><line style="stroke: #A80036; stroke-width: 1.0;" x1="1003.5767" x2="1006.417" y1="549.8829" y2="559.4705"/><text fill="#000000" font-family="sans-serif" font-size="13" lengthAdjust="spacingAndGlyphs" textLength="68" x="1016.5" y="588.0669">inner class</text><path d="M593.5,565.377 C593.5,584.01 593.5,604.6056 593.5,621.8961 " fill="none" style="stroke: #A80036; stroke-width: 1.0;"/><polygon fill="none" points="586.5,565.089,593.5,545.089,600.5,565.089,586.5,565.089" style="stroke: #A80036; stroke-width: 1.0;"/><text fill="#000000" font-family="sans-serif" font-size="13" lengthAdjust="spacingAndGlyphs" textLength="51" x="594.5" y="588.0669">extends</text></g></svg>